PathFileType	4	(X/Y/Z)	56_2_61_p0_0-243_filt_butterworth.trc
DataRate	CameraRate	NumFrames	NumMarkers	Units	OrigDataRate	OrigDataStartFrame	OrigNumFrames
48.0	48.0	5	27	m	48.0	212	243
Frame#	Time	RHip			RKnee			RAnkle			RBigToe			RSmallToe			RHeel			LHip			LKnee			LAnkle			LBigToe			LSmallToe			LHeel			Neck			Head			Nose			RShoulder			RElbow			RWrist			RThumb			RIndex			RPinky			LShoulder			LElbow			LWrist			LThumb			LIndex			LPinky			
		X1	Y1	Z1	X2	Y2	Z2	X3	Y3	Z3	X4	Y4	Z4	X5	Y5	Z5	X6	Y6	Z6	X7	Y7	Z7	X8	Y8	Z8	X9	Y9	Z9	X10	Y10	Z10	X11	Y11	Z11	X12	Y12	Z12	X13	Y13	Z13	X14	Y14	Z14	X15	Y15	Z15	X16	Y16	Z16	X17	Y17	Z17	X18	Y18	Z18	X19	Y19	Z19	X20	Y20	Z20	X21	Y21	Z21	X22	Y22	Z22	X23	Y23	Z23	X24	Y24	Z24	X25	Y25	Z25	X26	Y26	Z26	X27	Y27	Z27	
212	4.416666666666667	0.4606932253023026	0.5452239495191039	0.9918953342205947	0.435779258185913	0.11340193020926342	0.9230736994252503	0.494494566791727	-0.39275131437732874	1.0226112324594738	0.3960538111283597	-0.3497126211043569	0.77918661043753	0.4724429032937749	-0.38517870231796386	0.8203624524363143	0.5086316438237651	-0.45224624107970346	1.0773072426105659	0.26082358963122554	0.520200291359355	1.0643945765035798	0.30035006752838106	0.06629440231605305	1.0486415280410144	0.33341718527349257	-0.34796780320275467	1.0583816187856985	0.24468977458594598	-0.3524198108626459	0.8256326411242569	0.22501072143584874	-0.3981044120142976	0.9194409906760488	0.36920308696793286	-0.4362123120961491	1.1045466062378986	0.3523231295967922	0.9891934438850791	1.0741905545770327	0.2788213798679406	1.2727158567431411	0.9088865851546684	0.2737041644583985	1.1097338683689237	0.8856372878191973	0.5136697763692635	0.9755013349436727	1.0062326929225576	0.6234388372275282	0.7278099662326909	0.9620867272668738	0.6893974665867801	0.5418882599050165	0.7972534129024289	0.6855827134544014	0.44971057389540514	0.6954800103166443	0.7161035141474024	0.42916199100714586	0.7166834739369934	0.7389243266771651	0.4196214545689494	0.7813873675354593	0.19730952579616245	0.9368399560939284	1.102181144078469	0.11810135439177148	0.6888232520320428	1.1171902612002502	0.023107388890365507	0.47145337115577773	1.0267270014318992	0.005499335366277317	0.3769979295943307	0.9723738559289234	-0.04147589223006168	0.3763007871060618	0.9618476353284493	-0.03232577945731807	0.36539064400883453	1.0173790438356263	
213	4.4375	0.4589264352640372	0.5464317740060907	0.9899957216787252	0.4348335470930322	0.11481503879474864	0.922879436151516	0.4942346627479168	-0.392904037693889	1.0221404865317574	0.39389903692802397	-0.3458397721105843	0.7765294472191954	0.47066013546698815	-0.38343319524407415	0.8181336326227334	0.5096042205494353	-0.454182264286753	1.077878267994956	0.26062326668398295	0.519959840751073	1.0664842792501938	0.300393288742051	0.06636122303947656	1.0502613583916482	0.3333168512354365	-0.3490235983068412	1.0581660952659218	0.24214311986164788	-0.3468369709832083	0.8192640246358642	0.22499515068281883	-0.3983154034009835	0.9200090176748021	0.36946215310624436	-0.43832806268891944	1.1040494316772733	0.3522964408597288	0.9875748623564262	1.074348751512682	0.276296151109231	1.27085699792366	0.9061356747136595	0.27005322678561877	1.1091823653087196	0.8837162586107739	0.512932204111488	0.9755056267912875	1.003568787566905	0.637009302798434	0.7358729891289219	0.9533280347857307	0.7190883100091514	0.5523046695659934	0.792426234337315	0.7251964519764171	0.458167793941903	0.6991378496103806	0.7563358663063332	0.43903578730563586	0.7199581697654822	0.7788023830009287	0.42518355378088357	0.7901190244630898	0.19711670782676982	0.9366470751242286	1.1078986936017885	0.10160764400662203	0.6970347889740385	1.1315821124997316	-0.014382003881581302	0.48140957013449587	1.0676712955822971	-0.04319862249635783	0.38633383933797544	1.0264035555988364	-0.08961860847944773	0.380158272316815	1.0213721452757771	-0.0727490764555618	0.36997792540439783	1.0752538085039751	
214	4.458333333333333	0.45686429846082366	0.5480721218749087	0.9876257144947799	0.43374886690302367	0.11663106614734209	0.922257947404662	0.4938644558272576	-0.39277755602965836	1.0214959874375955	0.393099618172394	-0.3430926556970008	0.7752517780554087	0.4692646075922623	-0.3820717883743001	0.8164282320547172	0.5102506572835793	-0.45590121311708337	1.078229454829202	0.2603463502302935	0.5202677111386054	1.0676349075177347	0.3002647491668656	0.06686124151046996	1.0512195314128536	0.33316597857793806	-0.35068638888074755	1.0580081196395246	0.24059823228936078	-0.34236552610485543	0.8149265877899842	0.22568737103122333	-0.39858296845370395	0.920598940121892	0.3697049306665252	-0.4409297884063894	1.1040492176491803	0.35223674468283594	0.9865499678339551	1.0739493546704812	0.27482688580184733	1.268830240785503	0.9049415416708964	0.26695636192999084	1.1088185618179547	0.8817638754460564	0.5115239782832476	0.9754215900148886	1.0007534393168274	0.6478210153760148	0.7447956962890914	0.9452690120271161	0.745222453296098	0.5632099609231362	0.7873251360261785	0.758748085822248	0.4684030954876692	0.7042464763695206	0.788286324399794	0.4515790588426468	0.7163879119118994	0.8139560393162326	0.4311836588002377	0.7959311299062044	0.19672771285041013	0.9376989724228946	1.1092645168053075	0.08574632978312816	0.7061751829191589	1.1395411277647005	-0.04577025291689263	0.4936517380906401	1.1050422293939772	-0.08336220718892975	0.39988015851634845	1.0772349679517825	-0.12754988779921117	0.3901077352563806	1.0744323069718857	-0.10582753340247877	0.38133410204659224	1.119450210703497	
215	4.479166666666667	0.4547928197754695	0.5496359982818573	0.9852400844937852	0.43246266440007564	0.1186405014921616	0.9212178915085625	0.4934164973303048	-0.3924236967925336	1.0206262578277134	0.39317263479633646	-0.3416963904980164	0.7746009341204126	0.46847490014648685	-0.3813282009445177	0.8155158650184896	0.5106058767011803	-0.45733964620964646	1.0783992176185033	0.26001311135662447	0.5208660544342387	1.067933361195245	0.2999023895654166	0.0677486840788164	1.0514134502693369	0.3329664546031822	-0.35280417250740354	1.0578765905432974	0.2401631206153343	-0.3400840210684925	0.8138692797385321	0.2270366356084544	-0.39856776291455254	0.9204199825202592	0.3699413176943446	-0.4437668534139307	1.1043502626441204	0.35214403236918024	0.9864596230010175	1.0725871171699044	0.27433524997028186	1.2669713534719147	0.904873229929896	0.2648722240348695	1.10851717177175	0.8802277277034007	0.5097398994159666	0.9753648480612653	0.9973755253011849	0.6549105556673559	0.7533344780859438	0.9394941156820803	0.7662466446667214	0.5738333002640349	0.7825889179219094	0.784341334517177	0.4794198636074962	0.7092261264872518	0.8108493142962991	0.4650144864330922	0.7062686900476951	0.8426139060652145	0.4377972310441437	0.7968546437536197	0.19610360897217333	0.9400585533690131	1.1065433180423727	0.07164729987478055	0.7148683947942036	1.142118681183184	-0.06875853071793399	0.5066322639429028	1.1366054341116316	-0.11179246150986542	0.4151837897862245	1.1215874098404108	-0.15275875983508047	0.40488057275901035	1.1172264142393808	-0.1295553333867583	0.39870553658773344	1.146230900066096	
216	4.5	0.45312413741453206	0.5503563819624988	0.9833115774789207	0.43118753652939074	0.12028996117176255	0.9202967991574188	0.49281660496489943	-0.3918737735016907	1.0194861402217	0.3931776659999495	-0.3408489680642701	0.7737460991015332	0.46835409787424265	-0.3812838295588891	0.815475169344632	0.5107263679791952	-0.45836810343102535	1.0783056338640382	0.259629201595081	0.5212869857204601	1.0676658587134085	0.29934715822207353	0.0688894718926113	1.050966835709052	0.3327448371607498	-0.3549423233863037	1.0577839733655563	0.2405224430888922	-0.33965664419787756	0.8155403716604456	0.22858787185042678	-0.3980100739450949	0.9189427971507919	0.3701323001500528	-0.4463303181306359	1.104591299202881	0.35202063919330845	0.9872227798926092	1.0703750417602393	0.2743691614354191	1.2656655773711152	0.9052346252386145	0.2638628445432774	1.108328163468175	0.8793515617077247	0.5078305052589862	0.9754827055264829	0.993278750239363	0.6581848275669462	0.7603508492643877	0.9360569992694785	0.7806154024146509	0.5834738380309776	0.7766915972117787	0.8005909803669311	0.48850835302494844	0.713079259761475	0.8236347392610293	0.476305260778622	0.6923746888271172	0.8624868490797328	0.44303270327347555	0.7933419005571531	0.195271536879717	0.9430664661308163	1.1011126444571309	0.06068645182089921	0.7213005636413578	1.1424647959613012	-0.0831190820480836	0.5182543467158146	1.1589402579130743	-0.12895414961992152	0.429647118732575	1.1540200790076791	-0.16546135234786805	0.4195815340638433	1.1469941922486313	-0.14447435824382632	0.4183326604765537	1.1563863408764443	
